<svg xmlns="http://www.w3.org/2000/svg" xmlns:xlink="http://www.w3.org/1999/xlink" fill="none" version="1.1" width="31" height="31" viewBox="0 0 31 31"><defs><clipPath id="master_svg0_4_3634"><rect x="0" y="0" width="31" height="31" rx="0"/></clipPath></defs><g clip-path="url(#master_svg0_4_3634)"><g><path d="M12.245705571875,18.190430390625C12.123339671875,18.252294390625,11.985266671875,18.288013390625,11.838610671875,18.288013390625C11.499639471875,18.288013390625,11.204843471875,18.101242390625,11.050133671875,17.825466390625L10.990809471875,17.695385390625L8.521535871874999,12.277250290625C8.494894471875,12.218079590625,8.478227571875,12.151692390625,8.478227571875,12.086976990625C8.478227571875,11.837161990625,8.680644471875,11.634559590625,8.930459471875,11.634559590625C9.031915171875,11.634559590625,9.125472071875,11.668109890625,9.201153771875,11.724367190625L12.114759471875,13.798751390625C12.327801671875,13.938312390625,12.581985671875,14.019910390625,12.855374671875,14.019910390625C13.018880671875,14.019910390625,13.174272671875,13.989551390625,13.319407671875,13.936608390625L27.022535671875,7.837741890625C24.566547671875,4.943036390625,20.521093671875,3.051025390625,15.943204671875,3.051025390625C8.452081171875001,3.051025390625,2.37963959574699,8.111474990625,2.37963959574699,14.353960390625C2.37963959574699,17.760070390625,4.206749771875,20.825691390625,7.066235071875,22.897565390625C7.295789671875,23.061197390625,7.445790271875,23.330249390625,7.445790271875,23.633968390625C7.445790271875,23.734245390625,7.424229171875,23.826473390625,7.398268671875,23.922042390625C7.169860871875,24.774244390625,6.804121971875,26.138124390625,6.787084071875,26.202066390625C6.758614071875,26.308912390625,6.713942071875,26.420654390625,6.713942071875,26.532581390625C6.713942071875,26.782209390625,6.916544871875,26.984657390625,7.166359471875,26.984657390625C7.264779571875,26.984657390625,7.344674571875,26.948259390625,7.427605171875,26.900518390625L10.397004171875,25.186390390625C10.620331771875,25.057237390625,10.856825871875,24.977529390625,11.117235171875,24.977529390625C11.255803071875,24.977529390625,11.389787671875,24.998811390625,11.516057971875,25.037412390625C12.901222671875,25.435800390625,14.395772671875,25.657301390625,15.943236671875,25.657301390625C23.434051671875,25.657301390625,29.507018671875,20.596727390625,29.507018671875,14.354025390625C29.507018671875,12.463407490625,28.946889671875,10.682610990625001,27.962064671875,9.116436490625L12.344622571875,18.133273390625L12.245705571875,18.190430390625Z" fill="#00C800" fill-opacity="1" style="mix-blend-mode:passthrough"/></g></g></svg>