<svg xmlns="http://www.w3.org/2000/svg" xmlns:xlink="http://www.w3.org/1999/xlink" fill="none" version="1.1" width="31" height="31" viewBox="0 0 31 31"><defs><clipPath id="master_svg0_4_3638"><rect x="0" y="0" width="31" height="31" rx="0"/></clipPath></defs><g clip-path="url(#master_svg0_4_3638)"><g><path d="M6.9862323,17.45435C6.6043482,17.746376,6.2224641,18.173189,6.1101451,18.734781C5.9528985,19.476088,6.0876808,20.419565,6.7840576,21.160872C7.6601453,22.036959,8.985507,22.284058,9.5695658,22.328987C11.119566,22.441305,12.781884,21.655073,14.039856,20.801453C14.534059,20.464497,15.365218,19.76812,16.173912,18.689857C14.376812,17.768843,12.130435,16.735508,9.7492752,16.825365C8.4913044,16.870293,7.6152177,17.117393,6.9862323,17.45435ZM29.764494,21.56522C30.550726,19.700727,31,17.656523,31,15.5C31,6.9637685,24.036232,0,15.5,0C6.9637685,0,0,6.9637685,0,15.5C0,24.036232,6.9637685,31,15.5,31C20.666668,31,25.226814,28.461596,28.057247,24.575363C25.38406,23.272463,21.003624,21.071016,18.285509,19.768118C17.005072,21.250727,15.095653,22.710871,12.939131,23.339857C11.591305,23.744204,10.355797,23.901451,9.097826,23.631886C7.8173909,23.36232,6.8963766,22.778261,6.3572464,22.194204C6.0876813,21.879709,5.7731886,21.52029,5.5260868,21.04855C5.5485511,21.071014,5.5485511,21.115942,5.5485511,21.138407C5.5485511,21.138407,5.4137678,20.913769,5.3239136,20.554348C5.2789855,20.37464,5.2340584,20.194931,5.2115946,20.015219C5.1891303,19.880436,5.1891303,19.745653,5.2115946,19.633335C5.1891303,19.408697,5.2115946,19.161594,5.2565217,18.914494C5.391305,18.285509,5.6384058,17.58913,6.3347826,16.937681C7.8173909,15.477537,9.8166676,15.410146,10.85,15.410146C12.377537,15.432611,15.028261,16.084059,17.274639,16.892754C17.903624,15.56739,18.307972,14.174638,18.555073,13.208696L9.2326088,13.208696L9.2326088,12.197827L14.017391,12.197827L14.017391,10.176088L8.2442036,10.176088L8.2442036,9.1427546L14.017391,9.1427546L14.017391,7.1210155C14.017391,6.8514509,14.084783,6.6268129,14.511595,6.6268129L16.780436,6.6268129L16.780436,9.1427546L23.047827,9.1427546L23.047827,10.153625L16.780436,10.153625L16.780436,12.175364L21.789856,12.175364C21.789856,12.175364,21.27319,14.983333,19.723188,17.746376C23.205074,18.981884,28.124638,20.913769,29.764494,21.56522Z" fill="#06B4FD" fill-opacity="1" style="mix-blend-mode:passthrough"/></g></g></svg>